<svg xmlns="http://www.w3.org/2000/svg" viewBox="0 0 64 64" width="64" height="64" role="img" aria-label="GeoNet Open Data">
  <rect x="3" y="3" width="58" height="58" rx="14" fill="#0b1016" stroke="#20303c" stroke-width="1.5"/>
  <g fill="none" stroke-linecap="round">
    <path d="M12 20 Q26 14 32 19 T52 18" stroke="#39ff88" stroke-width="3.2" opacity="0.7"/>
    <path d="M12 23 Q26 17 32 22 T52 21" stroke="#4fd6ff" stroke-width="2.6" opacity="0.65"/>
    <path d="M12 26 Q26 20 32 25 T52 24" stroke="#c06bff" stroke-width="2.0" opacity="0.5"/>
  </g>
  <g fill="none" stroke="#4fd6ff" stroke-width="1.6">
    <circle cx="32" cy="40" r="15"/>
    <ellipse cx="32" cy="40" rx="6.3" ry="15"/>
    <ellipse cx="32" cy="40" rx="11.7" ry="15"/>
    <line x1="32" y1="25" x2="32" y2="55"/>
    <line x1="17" y1="40" x2="47" y2="40"/>
    <ellipse cx="32" cy="40" rx="15" ry="5" opacity="0.85"/>
    <ellipse cx="32" cy="32.5" rx="13" ry="3.2" opacity="0.7"/>
    <ellipse cx="32" cy="47.5" rx="13" ry="3.2" opacity="0.7"/>
  </g>
  <circle cx="41" cy="47" r="2.2" fill="#ffce6b"/>
  <circle cx="41" cy="47" r="4" fill="none" stroke="#ffce6b" stroke-width="1" opacity="0.7"/>
</svg>
